#!OML:ASF H:\Male1\Project 1\Capture day 1\Session 1\Male1.ASF
:FULLY-SPECIFIED
:DEGREES
800
root 15.8607 15.4081 2.95841 177.658 63.6617 182.271
lowerback 3.42092 -0.48233 -0.582812
upperback 3.30938 -0.554439 -1.31996
thorax 1.46998 -0.235684 -1.01431
lowerneck -5.96465 6.57682 11.6517
upperneck 3.52944 8.45333 -10.5112
head 2.96876 4.0696 -4.65365
rclavicle 2.91716e-014 -1.51076e-014
rhumerus 33.5474 19.4182 -70.8952
rradius 50.2839
rwrist -45.7939
rhand -18.7942 3.12203
rfingers 7.12502
rthumb 7.5038 -26.7249
lclavicle 2.91716e-014 -1.51076e-014
lhumerus 41.5376 11.4466 95.9378
lradius 31.6378
lwrist 42.6189
lhand -31.946 33.9812
lfingers 7.12502
lthumb -5.19659 63.8975
rfemur -2.65824 20.5042 20.7406
rtibia 22.4076
rfoot -20.7434 -22.9224
rtoes -28.1853
lfemur 2.9796 -21.611 -18.1502
ltibia 20.5684
lfoot -20.3519 26.4472
ltoes -17.1995
801
root 15.8664 15.4075 2.95325 177.784 63.5974 182.422
lowerback 3.74672 -0.501291 -0.508827
upperback 3.0935 -0.591994 -1.28272
thorax 1.06497 -0.256613 -1.01278
lowerneck -6.18706 6.53482 11.4829
upperneck 3.9861 8.39237 -10.1796
head 3.11206 4.03943 -4.51712
rclavicle -3.81667e-014 -1.59028e-015
rhumerus 33.1461 18.0475 -72.9931
rradius 50.523
rwrist -49.009
rhand -20.4304 1.74695
rfingers 7.12502
rthumb 5.92431 -28.1502
lclavicle -3.81667e-014 -1.59028e-015
lhumerus 40.668 11.4929 95.7188
lradius 31.272
lwrist 41.425
lhand -32.1114 34.2652
lfingers 7.12502
lthumb -5.3563 64.1775
rfemur -2.61886 20.4328 20.8377
rtibia 22.4349
rfoot -20.6612 -23.0743
rtoes -28.0909
lfemur 3.00142 -21.6133 -18.0907
ltibia 20.5864
lfoot -20.6127 26.3459
ltoes -16.6484
802
root 15.8702 15.4072 2.94754 177.657 63.5078 182.274
lowerback 4.15297 -0.528723 -0.553176
upperback 2.80793 -0.645963 -1.30669
thorax 0.544382 -0.287457 -1.0057
lowerneck -6.10849 6.52044 11.3914
upperneck 4.2954 8.38692 -9.8919
head 3.17383 4.04561 -4.41323
rclavicle 9.7653e-015 -7.95139e-016
rhumerus 32.7975 16.7441 -74.9217
rradius 50.6355
rwrist -52.1224
rhand -22.1221 0.47337
rfingers 7.12502
rthumb 4.2909 -29.4632
lclavicle 9.7653e-015 -7.95139e-016
lhumerus 39.983 11.7528 95.6709
lradius 30.6752
lwrist 40.8154
lhand -30.7827 34.5573
lfingers 7.12502
lthumb -4.07326 64.4981
rfemur -2.63508 20.1629 20.7495
rtibia 22.5008
rfoot -20.3802 -23.1825
rtoes -28.6817
lfemur 3.00982 -21.6726 -18.1821
ltibia 20.5766
lfoot -20.9623 26.218
ltoes -15.7237
803
root 15.8729 15.4091 2.9441 177.415 63.4108 181.978
lowerback 4.05403 -0.567114 -0.798205
upperback 2.87031 -0.700564 -1.28275
thorax 0.666325 -0.317496 -0.84319
lowerneck -6.12897 6.55187 11.3942
upperneck 4.27914 8.42732 -9.9115
head 3.17769 4.06454 -4.41634
rclavicle 2.2736e-014 -1.59028e-014
rhumerus 33.0637 15.2777 -76.647
rradius 50.4956
rwrist -54.7721
rhand -23.5627 -0.608636
rfingers 7.12502
rthumb 2.89969 -30.5687
lclavicle 2.2736e-014 -1.59028e-014
lhumerus 39.9565 12.1928 96.0624
lradius 30.1378
lwrist 40.3524
lhand -30.4892 34.3829
lfingers 7.12502
lthumb -3.78991 64.3289
rfemur -2.69945 20.0016 20.5352
rtibia 22.5662
rfoot -20.5256 -22.908
rtoes -28.4467
lfemur 2.9711 -21.6925 -18.3228
ltibia 20.5947
lfoot -20.938 26.1373
ltoes -15.6236
804
root 15.8752 15.4079 2.94251 177.238 63.3307 181.794
lowerback 4.27684 -0.559097 -0.965066
upperback 2.7659 -0.702516 -1.25604
thorax 0.437316 -0.321267 -0.719434
lowerneck -6.22382 6.5584 11.4724
upperneck 4.48813 8.4405 -10.0064
head 3.26485 4.06708 -4.45201
rclavicle -7.18607e-014 5.56597e-015
rhumerus 33.0752 13.6805 -78.4732
rradius 50.1858
rwrist -56.9705
rhand -24.7551 -1.73244
rfingers 7.12502
rthumb 1.74812 -31.705
lclavicle -7.18607e-014 5.56597e-015
lhumerus 39.5712 12.4754 96.3868
lradius 29.9179
lwrist 39.724
lhand -30.4893 34.244
lfingers 7.12502
lthumb -3.78994 64.19
rfemur -2.67994 19.9045 20.4361
rtibia 22.5783
rfoot -20.4258 -22.8859
rtoes -28.7459
lfemur 2.92315 -21.5971 -18.3929
ltibia 20.6604
lfoot -20.5217 26.1352
ltoes -16.7319
805
root 15.8779 15.4061 2.93977 177.503 63.2326 182.111
lowerback 4.19459 -0.541886 -0.765895
upperback 2.83257 -0.669374 -1.24861
thorax 0.549432 -0.301877 -0.825838
lowerneck -6.21883 6.50114 11.5621
upperneck 4.45883 8.35982 -10.0852
head 3.25388 4.0263 -4.49701
rclavicle 2.6662e-014 -1.51076e-014
rhumerus 33.4181 11.9418 -80.225
rradius 49.6528
rwrist -58.9047
rhand -25.902 -2.9326
rfingers 7.12502
rthumb 0.640377 -32.9114
lclavicle 2.6662e-014 -1.51076e-014
lhumerus 39.3564 12.4213 96.421
lradius 29.7235
lwrist 39.2668
lhand -30.6497 34.0958
lfingers 7.12502
lthumb -3.94487 64.039
rfemur -2.56113 19.8124 20.6327
rtibia 22.4964
rfoot -20.1273 -23.1356
rtoes -29.3764
lfemur 2.82878 -21.4441 -18.1954
ltibia 20.8065
lfoot -20.027 26.0831
ltoes -18.3017
806
root 15.8818 15.4086 2.93511 178.167 63.1199 182.822
lowerback 4.14911 -0.53906 -0.356481
upperback 2.81439 -0.654651 -1.20818
thorax 0.551803 -0.290568 -1.01471
lowerneck -6.21365 6.43406 11.5625
upperneck 4.52686 8.26812 -10.0123
head 3.26007 3.98322 -4.48075
rclavicle -1.45858e-014 -6.36111e-015
rhumerus 33.762 10.36 -81.8436
rradius 49.0013
rwrist -60.6763
rhand -27.0041 -3.78058
rfingers 7.12502
rthumb -0.424056 -33.7599
lclavicle -1.45858e-014 -6.36111e-015
lhumerus 39.132 12.4033 96.4514
lradius 29.4955
lwrist 38.9571
lhand -30.8131 34.0489
lfingers 7.12502
lthumb -4.1027 63.9892
rfemur -2.44778 19.8959 20.9757
rtibia 22.3089
rfoot -20.3869 -23.1111
rtoes -28.8708
lfemur 2.64724 -21.3743 -17.7998
ltibia 21.0641
lfoot -19.9676 25.9247
ltoes -18.7541
807
root 15.8844 15.409 2.9302 178.728 63.0625 183.424
lowerback 4.17603 -0.514618 -0.0153346
upperback 2.75402 -0.615139 -1.16695
thorax 0.472102 -0.268376 -1.16461
lowerneck -6.29779 6.39306 11.5094
upperneck 4.70437 8.20954 -9.88426
head 3.31271 3.95515 -4.43279
rclavicle -2.24627e-014 2.3059e-014
rhumerus 34.0955 8.96681 -83.2165
rradius 48.3303
rwrist -62.3949
rhand -28.0159 -4.42573
rfingers 7.12502
rthumb -1.40127 -34.4009
lclavicle -2.24627e-014 2.3059e-014
lhumerus 38.886 12.3122 96.4001
lradius 29.3452
lwrist 38.9386
lhand -30.6825 34.1796
lfingers 7.12502
lthumb -3.9765 64.1222
rfemur -2.33451 19.9343 21.2784
rtibia 22.0992
rfoot -20.2878 -23.2673
rtoes -28.9946
lfemur 2.48908 -21.3424 -17.4826
ltibia 21.3174
lfoot -20.1553 25.7547
ltoes -18.5663
808
root 15.8853 15.4054 2.926 178.992 63.0165 183.726
lowerback 4.26026 -0.500131 0.110182
upperback 2.69688 -0.594779 -1.11489
thorax 0.366103 -0.258429 -1.18143
lowerneck -6.33749 6.4177 11.532
upperneck 4.81066 8.2435 -9.88521
head 3.3557 3.97139 -4.43198
rclavicle 5.52373e-014 2.38542e-015
rhumerus 34.4306 7.7827 -84.376
rradius 47.6833
rwrist -63.8295
rhand -28.9406 -5.22879
rfingers 7.12502
rthumb -2.29437 -35.1962
lclavicle 5.52373e-014 2.38542e-015
lhumerus 38.5201 12.1326 96.1132
lradius 29.4474
lwrist 39.1725
lhand -30.3706 34.503
lfingers 7.12502
lthumb -3.67535 64.451
rfemur -2.23167 19.7332 21.467
rtibia 21.9949
rfoot -19.615 -23.638
rtoes -30.1039
lfemur 2.42108 -21.2364 -17.3112
ltibia 21.4121
lfoot -20.1387 25.5997
ltoes -18.6121
809
root 15.8882 15.4056 2.92339 178.842 62.9317 183.547
lowerback 4.29457 -0.4835 0.0278911
upperback 2.67057 -0.575928 -1.14791
thorax 0.320871 -0.249927 -1.16948
lowerneck -6.28323 6.44915 11.5436
upperneck 4.76793 8.28301 -9.82867
head 3.33617 3.99421 -4.41539
rclavicle -2.6165e-014 2.22639e-014
rhumerus 34.7603 6.5961 -85.4671
rradius 47.1288
rwrist -65.0508
rhand -29.6184 -6.0728
rfingers 7.12502
rthumb -2.94892 -36.0322
lclavicle -2.6165e-014 2.22639e-014
lhumerus 38.2769 12.0484 96.002
lradius 29.595
lwrist 39.1165
lhand -30.3899 34.8617
lfingers 7.12502
lthumb -3.69397 64.8095
rfemur -2.20517 19.7329 21.3888
rtibia 22.0083
rfoot -19.7103 -23.663
rtoes -29.8106
lfemur 2.39295 -21.1549 -17.3701
ltibia 21.3879
lfoot -20.1825 25.5063
ltoes -18.3468
810
root 15.8953 15.41 2.92183 178.315 62.841 182.957
lowerback 4.20804 -0.459315 -0.252427
upperback 2.72788 -0.54855 -1.25585
thorax 0.43025 -0.236909 -1.12494
lowerneck -6.29022 6.45867 11.5017
upperneck 4.69562 8.28286 -9.69714
head 3.30799 3.99705 -4.36859
rclavicle 4.71865e-014 -1.82882e-014
rhumerus 35.2302 5.44827 -86.4773
rradius 46.5635
rwrist -66.0965
rhand -30.0317 -6.78646
rfingers 7.12502
rthumb -3.34804 -36.7399
lclavicle 4.71865e-014 -1.82882e-014
lhumerus 38.2761 11.9538 95.9506
lradius 29.649
lwrist 39.1165
lhand -30.7314 34.7723
lfingers 7.12502
lthumb -4.02376 64.7141
rfemur -2.21818 20.0417 21.0978
rtibia 22.1004
rfoot -20.55 -23.4479
rtoes -28.222
lfemur 2.44348 -21.1676 -17.6616
ltibia 21.3016
lfoot -20.3247 25.4776
ltoes -17.9787
811
root 15.9025 15.4094 2.91984 177.955 62.7369 182.543
lowerback 4.00248 -0.448143 -0.496231
upperback 2.84742 -0.53312 -1.31839
thorax 0.669751 -0.229573 -1.05495
lowerneck -6.42548 6.45555 11.4752
upperneck 4.67958 8.25822 -9.61697
head 3.31807 3.98318 -4.3376
rclavicle -4.33102e-014 1.43125e-014
rhumerus 35.6993 4.60854 -87.1682
rradius 45.9929
rwrist -66.6939
rhand -30.3729 -7.15513
rfingers 7.12502
rthumb -3.67753 -37.1031
lclavicle -4.33102e-014 1.43125e-014
lhumerus 38.3205 11.6893 95.6894
lradius 29.7844
lwrist 39.5761
lhand -30.9739 34.1993
lfingers 7.12502
lthumb -4.25793 64.1365
rfemur -2.24857 20.1208 20.9013
rtibia 22.2459
rfoot -20.8906 -23.4241
rtoes -28.2196
lfemur 2.52627 -21.2365 -17.8736
ltibia 21.1573
lfoot -20.057 25.5249
ltoes -18.5869
812
root 15.9074 15.4061 2.91826 177.884 62.6305 182.44
lowerback 4.08067 -0.392921 -0.524754
upperback 2.75423 -0.464349 -1.37555
thorax 0.531256 -0.195965 -1.09902
lowerneck -6.47384 6.36996 11.4857
upperneck 4.81828 8.13486 -9.49613
head 3.34953 3.92513 -4.30822
rclavicle -4.14715e-014 -1.43125e-014
rhumerus 35.8197 3.90686 -87.5179
rradius 45.5914
rwrist -67.1428
rhand -30.801 -7.37802
rfingers 7.12502
rthumb -4.09096 -37.3185
lclavicle -4.14715e-014 -1.43125e-014
lhumerus 38.047 11.2495 95.3406
lradius 29.9418
lwrist 40.0352
lhand -30.8934 33.9751
lfingers 7.12502
lthumb -4.18017 63.9138
rfemur -2.27999 19.9847 20.8552
rtibia 22.3773
rfoot -20.5639 -23.7049
rtoes -30.3233
lfemur 2.57029 -21.3273 -17.9255
ltibia 21.0455
lfoot -19.779 25.5744
ltoes -19.1034
